# xmcd CD database file
#
# Track frame offsets:
#	187
#	16095
#	27305
#	42387
#	62812
#	77612
#	91250
#	104140
#	115957
#	131395
#	138805
#	147042
#	154822
#	172330
#	211232
#	234985
#	257437
#
# Disc length: 3594 seconds
#
# Revision: 0
# Processed by: cddbd v1.5.1PL2 Copyright (c) Steve Scherf et al.
# Submitted via: CDex 1.51
#
DISCID=e10e0811
DTITLE=Sergei Rachmaninov - The Ampico Piano Recordings Sergei Rachmaninov
DYEAR=1979
DGENRE=落語
TTITLE0=乙女の願いChopin/Liszt:Madchens Munsch
TTITLE1=Bizet/Rachmaninov:Minuet(from "L'Arlesienne")
TTITLE2=Paderewski:Minuet
TTITLE3=Rubinstein:Barcarolle
TTITLE4=Tchaikovsky:Troika in E Major, Op.37-11
TTITLE5=Tchaikovsky:Walse in A Flat Major, Op.40-8
TTITLE6=J.SBach:Sarabande(from Partita No.4, BWV.828)
TTITLE7=Beethoven/Rubinstein:Turkish March
TTITLE8=Gluck/Sgambati:Melody Dell'orfeo
TTITLE9=紡ぎ歌Mendelssohn:Spinning Song
TTITLE10=Henselt:Etude in F Sharp Major, Op.2-6"Si Oiseau J'etais"
TTITLE11=さすらいSuhubert:/Liszt:Das Wandern
TTITLE12=Suhubert:Impromptu No.4 in A Flat Major, D.899-4
TTITLE13=Chopin:Scherzo No.2 in B Minor,Op.31
TTITLE14=Chopin:Nocturne No.4 in F Major, Op.15-1
TTITLE15=Chopin:Waltz No.1 in E Flat Major, Op.18 "Grande Valse Brillante"
TTITLE16=Chopin:Waltz No.3 in F Major, Op.34-3 "Valse Brillante"
EXTD=YEAR: 1979
EXTT0=
EXTT1=
EXTT2=
EXTT3=
EXTT4=
EXTT5=
EXTT6=
EXTT7=
EXTT8=
EXTT9=
EXTT10=
EXTT11=
EXTT12=
EXTT13=
EXTT14=
EXTT15=
EXTT16=
PLAYORDER=
